<?xml version="1.0" encoding="utf-8"?>
<!-- Generator: Adobe Illustrator 20.0.0, SVG Export Plug-In . SVG Version: 6.00 Build 0)  -->
<svg version="1.1" id="Layer_1" xmlns="http://www.w3.org/2000/svg" xmlns:xlink="http://www.w3.org/1999/xlink" x="0px" y="0px"
	 viewBox="0 0 104 498" style="enable-background:new 0 0 104 498;" xml:space="preserve">
<style type="text/css">
	.st0{fill:#FFFFFF;}
	.st1{fill:url(#SVGID_1_);}
	.st2{fill:url(#SVGID_2_);}
	.st3{fill:url(#SVGID_3_);}
	.st4{fill:url(#SVGID_4_);}
	.st5{fill:#CF1818;}
</style>
<g>
	<path class="st0" d="M37.2,449.7c-0.1,0.3,0,0.7,0,1l2.7,11.6c0.4,1.1,1.4,1.8,2.5,1.8c2.2,0,4.7,0,5.5,0c1.4,0,2.4-1.3,2.1-2.7
		c-0.6-2.7-0.7-3-0.9-3.5h21.4c1.5,0,2.8-1.2,2.8-2.8v-4.7c0-1.5-1.2-2.8-2.8-2.8H39.9C38.6,447.5,37.4,448.5,37.2,449.7"/>
	
		<linearGradient id="SVGID_1_" gradientUnits="userSpaceOnUse" x1="44.3733" y1="100.3559" x2="56.2789" y2="27.2311" gradientTransform="matrix(1 0 0 -1 0 500)">
		<stop  offset="0" style="stop-color:#DD4C2F"/>
		<stop  offset="1" style="stop-color:#CF1818"/>
	</linearGradient>
	<path class="st1" d="M103,446.5c0-28.2-22.8-51-51-51s-51,22.8-51,51c0,28.1,22.8,51,51,51S103,474.7,103,446.5z M53.7,488.7
		c-23.8,0-43.1-19.3-43.1-43.1c0-23.8,19.3-43.1,43.1-43.1s43.1,19.3,43.1,43.1C96.8,469.4,77.5,488.7,53.7,488.7z"/>
	
		<linearGradient id="SVGID_2_" gradientUnits="userSpaceOnUse" x1="20.286" y1="57.7339" x2="46.6963" y2="66.6465" gradientTransform="matrix(1 0 0 -1 0 500)">
		<stop  offset="0" style="stop-color:#DD4C2F"/>
		<stop  offset="1" style="stop-color:#CF1818"/>
	</linearGradient>
	<path class="st2" d="M45.2,399.7c19.6,0,35.5,15.9,35.5,35.5c0,1,0,2-0.1,3c2.5,3.9,4.1,8.5,4.5,13.4c1.7-4.5,2.7-9.4,2.7-14.5
		c0-22.4-18.2-40.6-40.6-40.6c-4.3,0-8.5,0.7-12.5,1.9c-4.5,1.6-8.6,3.8-12.4,6.6c-9.6,7.4-15.7,19-15.7,32.1
		c-0.1,18.5,12.1,34,29,39c-2.9-2.6-5.3-5.9-7-9.5c-11.3-6-18.9-17.8-18.9-31.4C9.7,415.6,25.6,399.7,45.2,399.7z"/>
	
		<linearGradient id="SVGID_3_" gradientUnits="userSpaceOnUse" x1="95.3376" y1="45.1086" x2="47.8747" y2="72.8319" gradientTransform="matrix(1 0 0 -1 0 500)">
		<stop  offset="0" style="stop-color:#DD4C2F"/>
		<stop  offset="1" style="stop-color:#CF1818"/>
	</linearGradient>
	<path class="st3" d="M78.6,472.7c-2.3,2.8-5,5.2-8.1,7c18-3.4,31.5-19.1,31.5-38c0-21.4-17.3-38.7-38.7-38.7s-38.7,17.3-38.7,38.7
		c0,3.3,0.4,6.6,1.2,9.8c0.3-3.1,1-6,2.1-8.7c0.6-17.9,15.4-32.3,33.4-32.3c18.5,0,33.5,15,33.5,33.5
		C94.8,456.2,88.3,466.8,78.6,472.7z"/>
	
		<linearGradient id="SVGID_4_" gradientUnits="userSpaceOnUse" x1="58.0535" y1="73.8097" x2="58.4974" y2="18.5018" gradientTransform="matrix(1 0 0 -1 0 500)">
		<stop  offset="0" style="stop-color:#DD4C2F"/>
		<stop  offset="1" style="stop-color:#CF1818"/>
	</linearGradient>
	<path class="st4" d="M97,456.9c0-21.4-17.3-38.7-38.7-38.7s-38.7,17.3-38.7,38.7s17.3,38.7,38.7,38.7S97,478.3,97,456.9z
		 M55.4,483.7c-16.4,0-29.7-13.3-29.7-29.7s13.3-29.7,29.7-29.7s29.7,13.3,29.7,29.7C85.1,470.4,71.8,483.7,55.4,483.7z"/>
</g>
<g>
	<g>
		<path class="st0" d="M28.2,361.6c0-3,0.5-5.8,1.4-8.5s2.5-5,4.5-7.1c2.1-2,4.8-3.6,8.2-4.8c3.4-1.2,7.4-1.8,12.2-1.8h26
			c0.9,0,1.3,0.4,1.3,1.3v9.1c0,0.8-0.4,1.3-1.3,1.3H56.2c-3,0-5.6,0.3-7.6,1s-3.7,1.4-4.9,2.5s-2.1,2.4-2.6,3.8
			c-0.5,1.5-0.8,2.7-0.8,4.3c0,3.5,1.3,6.3,3.9,8.3c2.6,2.1,7.2,3.5,11.5,3.5h24.7c0.9,0,1.3,0.4,1.3,1.3v9.2c0,0.8-0.4,1.3-1.3,1.3
			H30.1c-0.9,0-1.3-0.4-1.3-1.3v-4c0-1.5,0.3-3.3,1.7-4.8c1.1-1.1,2.8-1.6,4.1-1.6c-1.4-1-2.8-3-3.6-4.1
			C29.1,367.9,28.2,364.6,28.2,361.6"/>
		<path class="st0" d="M71.4,289.7c0.3-0.3,0.6-0.5,1-0.5s0.7,0.1,1.1,0.4c2.9,2.6,5.2,5.8,6.8,9.5c1.6,3.7,2.5,7.3,2.5,10.8
			c0,3.9-0.7,7.5-2,10.9c-1.3,3.3-3.2,6.2-5.6,8.6s-5.3,4.3-8.6,5.6c-3.3,1.3-7,2-11,2c-3.6,0-7.1-0.7-10.4-2
			c-3.3-1.3-6.2-3.1-8.7-5.3c-2.5-2.3-4.5-4.9-6-8s-2.2-6.4-2.2-9.9s0.7-6.8,2-9.9s3.2-5.8,5.7-8c2.5-2.3,5.7-4,9.4-5.3
			c3.8-1.3,8.1-1.9,12.9-1.9c0.7,0,1.3,0.3,1.7,0.7c0.4,0.4,0.7,0.8,0.7,1.8v35.4c1.4-0.3,2.8-0.7,4.1-1.7c1.3-1,2.5-2.1,3.4-3.5
			c1-1.3,1.8-2.8,2.3-4.4c0.6-1.6,0.9-3.2,0.9-4.7c0-2.9-0.6-5.4-1.8-7.5c-1.2-2.2-2.4-3.8-3.4-4.8c-0.6-0.6-0.6-1.2-0.1-1.8
			L71.4,289.7z M51,298.7c-3.3,0.5-6.1,1.8-8.4,4c-2.3,2.2-3.3,5.2-3.3,8.7c0,3.7,1,6.6,3.3,8.9s5.1,3.6,8.4,4.1V298.7z"/>
		<path class="st0" d="M81.1,270.4l-50.8,20.1c-0.3,0.1-0.7,0.1-1,0c-0.3-0.2-0.5-0.4-0.5-0.7V280c0-0.8,0.4-1.4,1.2-1.6l27.2-10.7
			l-27.6-12.2c-0.8-0.3-1.2-0.9-1.2-1.7s0.4-1.4,1.1-1.8l27.7-12.4L30,229.3c-0.8-0.3-1.2-0.8-1.2-1.5V218c0-0.3,0.2-0.6,0.5-0.7
			c0.3-0.2,0.6-0.2,1,0L81.1,237c0.9,0.3,1.3,0.9,1.4,1.7s-0.4,1.5-1.2,1.9l-28,13.2l28,13c0.8,0.4,1.2,1,1.2,1.9
			S81.9,270.1,81.1,270.4"/>
		<path class="st0" d="M82.7,199.7c0,2.8-0.4,5.4-1.1,7.7s-1.6,4.3-2.6,6.1c-1,1.7-2,3.2-3,4.4s-1.9,2.1-2.6,2.7
			c-0.3,0.2-0.4,0.3-0.7,0.3c-0.3,0-0.7-0.1-1-0.4l-6.2-5.2c-0.7-0.5-0.7-1.2-0.1-1.8c0.4-0.5,3.8-4.1,5.7-9.1
			c0.6-1.5,0.8-3.1,0.8-4.9c0-1.9-0.4-3.4-1.3-4.6c-0.9-1.2-1.9-1.7-3.2-1.7c-1.1,0-2.1,0.4-2.9,1.1c-0.8,0.7-1.3,1.6-1.9,2.6
			c-1.3,2.2-3.5,9.4-4.8,12c-0.9,1.8-1.9,3.4-3.2,4.7c-1.2,1.4-2.8,2.5-4.6,3.3s-4,1.2-6.7,1.2c-2.4,0-4.6-0.5-6.5-1.4
			s-3.5-2.1-4.8-3.7c-1.3-1.5-2.5-4-3.2-6.1c-1.7-5.6-0.9-10.2,0.2-13.5c0.7-2.1,1.6-3.9,2.6-5.5c1-1.6,2-2.9,3.1-3.9
			c1-1,1.9-1.8,2.6-2.3c0.7-0.5,1.3-0.4,1.8,0.2l4.9,5.7c0.5,0.6,0.4,1.2-0.1,1.7s-2.3,2.3-3.5,4.2c-0.6,0.9-1,2-1.4,3.1
			c-0.4,1.2-0.6,2.5-0.6,3.9c0,1.7,0.6,3.1,1.6,4.2c0.9,1,2.1,1.5,3.1,1.5c1.1,0,2-0.3,2.6-0.9c0.7-0.6,1.3-1.4,1.7-2.3
			c1.2-2.5,3.1-9,4.7-12.2c1-1.9,2.2-3.5,3.5-4.9c1.4-1.4,3-2.5,4.9-3.3s4.1-1.2,6.8-1.2c5,0,8.8,1.7,11.3,5.1
			C81.4,189.8,82.7,194.2,82.7,199.7"/>
	</g>
	<g>
		<g>
			<path class="st5" d="M28.3,144.8c0-2.6,0.4-5.2,1.1-7.9s2-5.1,3.8-7.2c1.8-2.2,4.2-3.9,7.3-5.3s6.9-2,11.6-2h28.3
				c0.5,0,1,0.2,1.3,0.5c0.3,0.4,0.5,0.8,0.5,1.3v2.1c0,0.6-0.2,1-0.5,1.3s-0.8,0.5-1.3,0.5H52.1c-6.1,0-10.7,1.6-13.7,4.7
				c-3,3.1-4.5,7.1-4.5,12.1c0,2.9,0.5,5.5,1.6,7.8c1,2.3,2.5,4.2,4.3,5.8s3.9,2.8,6.3,3.7c2.4,0.8,4.9,1.3,7.6,1.3h26.8
				c0.5,0,1,0.2,1.3,0.5c0.3,0.4,0.5,0.8,0.5,1.4v2c0,0.6-0.2,1-0.5,1.4c-0.3,0.3-0.8,0.5-1.3,0.5h-50c-0.8,0-1.2-0.4-1.2-1.3
				c0-1.2,0.4-2.2,1.3-3.1c0.8-0.9,1.9-1.4,3.1-1.4l3.9-0.1c-0.9-0.6-1.8-1.4-2.9-2.5c-1-1-2-2.3-2.9-3.8s-1.7-3.3-2.3-5.3
				C28.7,149.7,28.3,147.4,28.3,144.8z"/>
			<path class="st5" d="M83,94c0,3.5-0.7,6.8-2.2,9.8s-3.4,5.7-5.9,8s-5.4,4.1-8.7,5.4c-3.3,1.3-6.8,2-10.5,2s-7.2-0.7-10.5-2
				s-6.2-3.1-8.7-5.4s-4.4-5-5.9-8c-1.5-3-2.2-6.3-2.2-9.8s0.7-6.8,2.2-9.9c1.5-3.1,3.4-5.7,5.9-8s5.4-4,8.7-5.3s6.8-2,10.5-2
				s7.2,0.7,10.5,2c3.3,1.3,6.2,3.1,8.7,5.3c2.5,2.3,4.5,4.9,5.9,8C82.3,87.2,83,90.5,83,94z M33.9,94c0,2.8,0.6,5.4,1.7,7.8
				c1.1,2.4,2.7,4.5,4.7,6.3s4.3,3.2,6.9,4.2c2.6,1,5.4,1.6,8.4,1.6s5.9-0.5,8.5-1.6c2.6-1,4.9-2.5,6.9-4.2c2-1.8,3.5-3.9,4.7-6.3
				s1.7-5,1.7-7.8c0-2.7-0.6-5.3-1.7-7.7C74.5,83.9,73,81.8,71,80s-4.3-3.2-6.9-4.3c-2.6-1-5.5-1.6-8.5-1.6s-5.8,0.5-8.4,1.6
				s-4.9,2.5-6.9,4.3s-3.5,3.9-4.7,6.3C34.5,88.7,33.9,91.3,33.9,94z"/>
			<path class="st5" d="M31.2,71.7c-0.5,0.1-0.9,0.1-1.3-0.1s-0.6-0.5-0.6-0.9v-2.5c0-0.3,0.1-0.7,0.4-1c0.2-0.4,0.6-0.6,1.1-0.7
				h-0.1l40.2-14.8l-40.5-14c-0.8-0.3-1.2-0.9-1.2-1.7s0.4-1.4,1.2-1.7c7-2.4,13.7-4.8,20.2-7.2c6.5-2.3,13.3-4.7,20.2-7.2L30.6,5.4
				h0.1c-0.9-0.3-1.4-0.9-1.4-1.8V1.2c0-0.4,0.2-0.7,0.6-0.9s0.8-0.3,1.3-0.2l50,18.1c0.9,0.3,1.4,0.9,1.4,1.8s-0.5,1.5-1.4,1.8
				L40.9,35.9c6.7,2.3,13.4,4.6,20.1,6.9c6.7,2.3,13.4,4.6,20.1,7c0.8,0.3,1.3,0.9,1.3,1.8c0.1,0.9-0.3,1.5-1.2,1.9L31.2,71.7z"/>
		</g>
	</g>
</g>
</svg>
