<svg xmlns="http://www.w3.org/2000/svg" viewBox="0 0 452.647 405.07">
  <defs>
    <style>
      .cls-1 {
        stroke: #000;
      }

      .cls-2 {
        fill: #f51a08;
        stroke: #f51a08;
      }

      .cls-12, .cls-3 {
        fill: #95baf7;
      }

      .cls-4 {
        fill: #275333;
        stroke: #275333;
      }

      .cls-13, .cls-5 {
        fill: #f5b808;
      }

      .cls-6, .cls-7 {
        fill: #fff;
      }

      .cls-6 {
        stroke: #fff;
      }

      .cls-7, .cls-9 {
        stroke: #707070;
      }

      .cls-8 {
        fill: #707070;
        font-size: 43px;
        font-family: HelveticaNeue, Helvetica Neue;
      }

      .cls-11, .cls-9 {
        fill: none;
      }

      .cls-10, .cls-12, .cls-13 {
        stroke: none;
      }
    </style>
  </defs>
  <g id="Group_1" data-name="Group 1" transform="translate(-295 -180)">
    <g id="Ellipse_17" data-name="Ellipse 17" class="cls-1" transform="translate(348.253 180)">
      <ellipse class="cls-10" cx="118.867" cy="115.077" rx="118.867" ry="115.077"/>
      <ellipse class="cls-11" cx="118.867" cy="115.077" rx="118.367" ry="114.577"/>
    </g>
    <g id="Ellipse_18" data-name="Ellipse 18" class="cls-2" transform="translate(400.554 354.917)">
      <ellipse class="cls-10" cx="118.867" cy="115.077" rx="118.867" ry="115.077"/>
      <ellipse class="cls-11" cx="118.867" cy="115.077" rx="118.367" ry="114.577"/>
    </g>
    <g id="Path_1" data-name="Path 1" class="cls-3" transform="translate(467.12 180)">
      <path class="cls-10" d="M 118.8673629760742 229.6533050537109 C 110.8349227905273 229.6533050537109 102.8076553344727 228.8699188232422 95.00859832763672 227.3248901367188 C 87.40815734863281 225.8192138671875 79.93215942382812 223.5725402832031 72.78830718994141 220.6472930908203 C 65.77427673339844 217.7752075195312 59.00924682617188 214.2203826904297 52.68118667602539 210.0815582275391 C 46.41339111328125 205.982177734375 40.51950836181641 201.2743530273438 35.16324615478516 196.0888824462891 C 29.8072452545166 190.9037170410156 24.94471549987793 185.1982421875 20.71071624755859 179.1309814453125 C 16.43642234802246 173.0059509277344 12.76533317565918 166.4581451416016 9.799363136291504 159.6695098876953 C 6.778774738311768 152.7557067871094 4.458892345428467 145.5206298828125 2.904157161712646 138.1652069091797 C 1.308892369270325 130.6178894042969 0.5000100135803223 122.8497695922852 0.5000100135803223 115.0766525268555 C 0.5000100135803223 107.3035354614258 1.308892369270325 99.53541564941406 2.904157161712646 91.98809051513672 C 4.458892345428467 84.63268280029297 6.778774738311768 77.39759063720703 9.799363136291504 70.48380279541016 C 12.76533317565918 63.69515228271484 16.43642234802246 57.14735794067383 20.71071624755859 51.02235794067383 C 24.94471549987793 44.95509338378906 29.8072452545166 39.2496223449707 35.16324615478516 34.06441879272461 C 40.51950836181641 28.87894630432129 46.41339111328125 24.17112350463867 52.68118667602539 20.07174110412598 C 59.00924682617188 15.93291759490967 65.77427673339844 12.37809371948242 72.78830718994141 9.50600528717041 C 79.93215942382812 6.580770015716553 87.40815734863281 4.334093570709229 95.00859832763672 2.828417301177979 C 102.8076553344727 1.283387780189514 110.8349227905273 0.5000054836273193 118.8673629760742 0.5000054836273193 C 126.8998031616211 0.5000054836273193 134.9270629882812 1.283387780189514 142.7261352539062 2.828417301177979 C 150.3265686035156 4.334093570709229 157.8025665283203 6.580770015716553 164.9464263916016 9.50600528717041 C 171.96044921875 12.37809371948242 178.7254791259766 15.93291759490967 185.0535430908203 20.07174110412598 C 191.3213348388672 24.17112350463867 197.2152099609375 28.87894630432129 202.5714874267578 34.06441879272461 C 207.9274749755859 39.2496223449707 212.7900085449219 44.95509338378906 217.0240173339844 51.02235794067383 C 221.2983093261719 57.14735794067383 224.9693908691406 63.69515228271484 227.9353637695312 70.48380279541016 C 230.9559478759766 77.39759063720703 233.2758331298828 84.63268280029297 234.83056640625 91.98809051513672 C 236.4258270263672 99.53541564941406 237.2347106933594 107.3035354614258 237.2347106933594 115.0766525268555 C 237.2347106933594 122.8497695922852 236.4258270263672 130.6178894042969 234.83056640625 138.1652069091797 C 233.2758331298828 145.5206298828125 230.9559478759766 152.7557067871094 227.9353637695312 159.6695098876953 C 224.9693908691406 166.4581451416016 221.2983093261719 173.0059509277344 217.0240173339844 179.1309814453125 C 212.7900085449219 185.1982421875 207.9274749755859 190.9037170410156 202.5714874267578 196.0888824462891 C 197.2152099609375 201.2743530273438 191.3213348388672 205.982177734375 185.0535430908203 210.0815582275391 C 178.7254791259766 214.2203826904297 171.96044921875 217.7752075195312 164.9464263916016 220.6472930908203 C 157.8025665283203 223.5725402832031 150.3265686035156 225.8192138671875 142.7261352539062 227.3248901367188 C 134.9270629882812 228.8699188232422 126.8998031616211 229.6533050537109 118.8673629760742 229.6533050537109 Z"/>
      <path class="cls-12" d="M 118.8673629760742 1 C 110.8674545288086 1 102.8728942871094 1.780181884765625 95.10577392578125 3.318878173828125 C 87.53683471679688 4.818313598632812 80.09188842773438 7.055648803710938 72.97776794433594 9.968719482421875 C 65.99308776855469 12.82878112792969 59.25639343261719 16.36871337890625 52.95486450195312 20.49018859863281 C 46.71351623535156 24.57225036621094 40.84458923339844 29.26014709472656 35.510986328125 34.42361450195312 C 30.17799377441406 39.58656311035156 25.33639526367188 45.26744079589844 21.12074279785156 51.3084716796875 C 16.865234375 57.40655517578125 13.2103271484375 63.92539978027344 10.25755310058594 70.6839599609375 C 7.25048828125 77.56671142578125 4.941055297851562 84.76921081542969 3.393325805664062 92.09149169921875 C 1.80523681640625 99.60487365722656 0.9999847412109375 107.3382186889648 0.9999847412109375 115.0766525268555 C 0.9999847412109375 122.8150863647461 1.80523681640625 130.5484008789062 3.393325805664062 138.0617980957031 C 4.941055297851562 145.3840637207031 7.25048828125 152.5865936279297 10.25755310058594 159.4692993164062 C 13.2103271484375 166.2278747558594 16.865234375 172.7467498779297 21.12074279785156 178.8448181152344 C 25.33639526367188 184.8858337402344 30.17799377441406 190.5667114257812 35.510986328125 195.7296447753906 C 40.84458923339844 200.8931579589844 46.71351623535156 205.5810241699219 52.95486450195312 209.6631164550781 C 59.25639343261719 213.7845916748047 65.99308776855469 217.3245239257812 72.97776794433594 220.1845855712891 C 80.09188842773438 223.09765625 87.53683471679688 225.3349914550781 95.10577392578125 226.8344268798828 C 102.8728942871094 228.3731231689453 110.8674545288086 229.1533050537109 118.8673629760742 229.1533050537109 C 126.8672714233398 229.1533050537109 134.8618316650391 228.3731231689453 142.6289672851562 226.8344268798828 C 150.1978912353516 225.3349914550781 157.642822265625 223.09765625 164.7569580078125 220.1845855712891 C 171.7416381835938 217.3245239257812 178.4783325195312 213.7845916748047 184.7798614501953 209.6631164550781 C 191.0211791992188 205.5810241699219 196.89013671875 200.8931579589844 202.2237091064453 195.7296447753906 C 207.5567016601562 190.5667114257812 212.3983001708984 184.8858337402344 216.6139526367188 178.8448181152344 C 220.8694610595703 172.7467498779297 224.5243682861328 166.2278747558594 227.4771728515625 159.4692993164062 C 230.4842071533203 152.5865936279297 232.7936401367188 145.3840637207031 234.3413696289062 138.0617980957031 C 235.9294586181641 130.5484008789062 236.7347106933594 122.8150863647461 236.7347106933594 115.0766525268555 C 236.7347106933594 107.3382186889648 235.9294586181641 99.60487365722656 234.3413696289062 92.09149169921875 C 232.7936401367188 84.76921081542969 230.4842071533203 77.56668090820312 227.4771728515625 70.6839599609375 C 224.5243682861328 63.92539978027344 220.8694610595703 57.40655517578125 216.6139526367188 51.3084716796875 C 212.3983001708984 45.26744079589844 207.5567016601562 39.58656311035156 202.2237091064453 34.42361450195312 C 196.89013671875 29.26014709472656 191.0211791992188 24.57225036621094 184.7798614501953 20.49018859863281 C 178.4783325195312 16.36871337890625 171.7416381835938 12.82878112792969 164.7569580078125 9.968719482421875 C 157.642822265625 7.055648803710938 150.1978912353516 4.818313598632812 142.6289672851562 3.318878173828125 C 134.8618316650391 1.780181884765625 126.8672714233398 1 118.8673629760742 1 M 118.8673629760742 0 C 184.5159912109375 0 237.7347106933594 51.52156066894531 237.7347106933594 115.0766525268555 C 237.7347106933594 178.6317138671875 184.5159912109375 230.1533050537109 118.8673629760742 230.1533050537109 C 53.21873474121094 230.1533050537109 -1.52587890625e-05 178.6317138671875 -1.52587890625e-05 115.0766525268555 C -1.52587890625e-05 51.52156066894531 53.21873474121094 0 118.8673629760742 0 Z"/>
    </g>
    <g id="Ellipse_20" data-name="Ellipse 20" class="cls-4" transform="translate(295 290.474)">
      <ellipse class="cls-10" cx="118.867" cy="115.077" rx="118.867" ry="115.077"/>
      <ellipse class="cls-11" cx="118.867" cy="115.077" rx="118.367" ry="114.577"/>
    </g>
    <g id="Path_2" data-name="Path 2" class="cls-5" transform="translate(509.912 290.474)">
      <path class="cls-10" d="M 118.8673629760742 229.6533050537109 C 110.8349227905273 229.6533050537109 102.8076553344727 228.8699188232422 95.00859832763672 227.3248901367188 C 87.40815734863281 225.8192138671875 79.93215942382812 223.5725402832031 72.78830718994141 220.6472930908203 C 65.77427673339844 217.7752075195312 59.00924682617188 214.2203826904297 52.68118667602539 210.0815582275391 C 46.41339111328125 205.982177734375 40.51950836181641 201.2743530273438 35.16324615478516 196.0888824462891 C 29.8072452545166 190.9037170410156 24.94471549987793 185.1982421875 20.71071624755859 179.1309814453125 C 16.43642234802246 173.0059509277344 12.76533317565918 166.4581451416016 9.799363136291504 159.6695098876953 C 6.778774738311768 152.7557067871094 4.458892345428467 145.5206298828125 2.904157161712646 138.1652069091797 C 1.308892369270325 130.6178894042969 0.5000100135803223 122.8497695922852 0.5000100135803223 115.0766525268555 C 0.5000100135803223 107.3035354614258 1.308892369270325 99.53541564941406 2.904157161712646 91.98809051513672 C 4.458892345428467 84.63268280029297 6.778774738311768 77.39759063720703 9.799363136291504 70.48380279541016 C 12.76533317565918 63.69515228271484 16.43642234802246 57.14735794067383 20.71071624755859 51.02235794067383 C 24.94471549987793 44.95509338378906 29.8072452545166 39.2496223449707 35.16324615478516 34.06441879272461 C 40.51950836181641 28.87894630432129 46.41339111328125 24.17112350463867 52.68118667602539 20.07174110412598 C 59.00924682617188 15.93291759490967 65.77427673339844 12.37809371948242 72.78830718994141 9.50600528717041 C 79.93215942382812 6.580770015716553 87.40815734863281 4.334093570709229 95.00859832763672 2.828417301177979 C 102.8076553344727 1.283387780189514 110.8349227905273 0.5000054836273193 118.8673629760742 0.5000054836273193 C 126.8998031616211 0.5000054836273193 134.9270629882812 1.283387780189514 142.7261352539062 2.828417301177979 C 150.3265686035156 4.334093570709229 157.8025665283203 6.580770015716553 164.9464263916016 9.50600528717041 C 171.96044921875 12.37809371948242 178.7254791259766 15.93291759490967 185.0535430908203 20.07174110412598 C 191.3213348388672 24.17112350463867 197.2152099609375 28.87894630432129 202.5714874267578 34.06441879272461 C 207.9274749755859 39.2496223449707 212.7900085449219 44.95509338378906 217.0240173339844 51.02235794067383 C 221.2983093261719 57.14735794067383 224.9693908691406 63.69515228271484 227.9353637695312 70.48380279541016 C 230.9559478759766 77.39759063720703 233.2758331298828 84.63268280029297 234.83056640625 91.98809051513672 C 236.4258270263672 99.53541564941406 237.2347106933594 107.3035354614258 237.2347106933594 115.0766525268555 C 237.2347106933594 122.8497695922852 236.4258270263672 130.6178894042969 234.83056640625 138.1652069091797 C 233.2758331298828 145.5206298828125 230.9559478759766 152.7557067871094 227.9353637695312 159.6695098876953 C 224.9693908691406 166.4581451416016 221.2983093261719 173.0059509277344 217.0240173339844 179.1309814453125 C 212.7900085449219 185.1982421875 207.9274749755859 190.9037170410156 202.5714874267578 196.0888824462891 C 197.2152099609375 201.2743530273438 191.3213348388672 205.982177734375 185.0535430908203 210.0815582275391 C 178.7254791259766 214.2203826904297 171.96044921875 217.7752075195312 164.9464263916016 220.6472930908203 C 157.8025665283203 223.5725402832031 150.3265686035156 225.8192138671875 142.7261352539062 227.3248901367188 C 134.9270629882812 228.8699188232422 126.8998031616211 229.6533050537109 118.8673629760742 229.6533050537109 Z"/>
      <path class="cls-13" d="M 118.8673629760742 1 C 110.8674545288086 1 102.8728942871094 1.780181884765625 95.10577392578125 3.318878173828125 C 87.53683471679688 4.818313598632812 80.09188842773438 7.055648803710938 72.97776794433594 9.968719482421875 C 65.99308776855469 12.82878112792969 59.25639343261719 16.36871337890625 52.95486450195312 20.49018859863281 C 46.71351623535156 24.57225036621094 40.84458923339844 29.26014709472656 35.510986328125 34.42361450195312 C 30.17799377441406 39.58656311035156 25.33639526367188 45.26744079589844 21.12074279785156 51.3084716796875 C 16.865234375 57.40655517578125 13.2103271484375 63.92539978027344 10.25755310058594 70.6839599609375 C 7.25048828125 77.56671142578125 4.941055297851562 84.76921081542969 3.393325805664062 92.09149169921875 C 1.80523681640625 99.60487365722656 0.9999847412109375 107.3382186889648 0.9999847412109375 115.0766525268555 C 0.9999847412109375 122.8150863647461 1.80523681640625 130.5484008789062 3.393325805664062 138.0617980957031 C 4.941055297851562 145.3840637207031 7.25048828125 152.5865936279297 10.25755310058594 159.4692993164062 C 13.2103271484375 166.2278747558594 16.865234375 172.7467498779297 21.12074279785156 178.8448181152344 C 25.33639526367188 184.8858337402344 30.17799377441406 190.5667114257812 35.510986328125 195.7296447753906 C 40.84458923339844 200.8931579589844 46.71351623535156 205.5810241699219 52.95486450195312 209.6631164550781 C 59.25639343261719 213.7845916748047 65.99308776855469 217.3245239257812 72.97776794433594 220.1845855712891 C 80.09188842773438 223.09765625 87.53683471679688 225.3349914550781 95.10577392578125 226.8344268798828 C 102.8728942871094 228.3731231689453 110.8674545288086 229.1533050537109 118.8673629760742 229.1533050537109 C 126.8672714233398 229.1533050537109 134.8618316650391 228.3731231689453 142.6289672851562 226.8344268798828 C 150.1978912353516 225.3349914550781 157.642822265625 223.09765625 164.7569580078125 220.1845855712891 C 171.7416381835938 217.3245239257812 178.4783325195312 213.7845916748047 184.7798614501953 209.6631164550781 C 191.0211791992188 205.5810241699219 196.89013671875 200.8931579589844 202.2237091064453 195.7296447753906 C 207.5567016601562 190.5667114257812 212.3983001708984 184.8858337402344 216.6139526367188 178.8448181152344 C 220.8694610595703 172.7467498779297 224.5243682861328 166.2278747558594 227.4771728515625 159.4692993164062 C 230.4842071533203 152.5865936279297 232.7936401367188 145.3840637207031 234.3413696289062 138.0617980957031 C 235.9294586181641 130.5484008789062 236.7347106933594 122.8150863647461 236.7347106933594 115.0766525268555 C 236.7347106933594 107.3382186889648 235.9294586181641 99.60487365722656 234.3413696289062 92.09149169921875 C 232.7936401367188 84.76921081542969 230.4842071533203 77.56668090820312 227.4771728515625 70.6839599609375 C 224.5243682861328 63.92539978027344 220.8694610595703 57.40655517578125 216.6139526367188 51.3084716796875 C 212.3983001708984 45.26744079589844 207.5567016601562 39.58656311035156 202.2237091064453 34.42361450195312 C 196.89013671875 29.26014709472656 191.0211791992188 24.57225036621094 184.7798614501953 20.49018859863281 C 178.4783325195312 16.36871337890625 171.7416381835938 12.82878112792969 164.7569580078125 9.968719482421875 C 157.642822265625 7.055648803710938 150.1978912353516 4.818313598632812 142.6289672851562 3.318878173828125 C 134.8618316650391 1.780181884765625 126.8672714233398 1 118.8673629760742 1 M 118.8673629760742 0 C 184.5159912109375 0 237.7347106933594 51.52156066894531 237.7347106933594 115.0766525268555 C 237.7347106933594 178.6317138671875 184.5159912109375 230.1533050537109 118.8673629760742 230.1533050537109 C 53.21873474121094 230.1533050537109 -1.52587890625e-05 178.6317138671875 -1.52587890625e-05 115.0766525268555 C -1.52587890625e-05 51.52156066894531 53.21873474121094 0 118.8673629760742 0 Z"/>
    </g>
    <g id="Ellipse_22" data-name="Ellipse 22" class="cls-6" transform="translate(359 217)">
      <circle class="cls-10" cx="160" cy="160" r="160"/>
      <circle class="cls-11" cx="160" cy="160" r="159.5"/>
    </g>
    <g id="Rectangle_1" data-name="Rectangle 1" class="cls-7" transform="translate(406 320)">
      <rect class="cls-10" width="226" height="115"/>
      <rect class="cls-11" x="0.5" y="0.5" width="225" height="114"/>
    </g>
    <text id="Screens" class="cls-8" transform="translate(440 344)"><tspan x="0" y="41">Screens</tspan></text>
    <g id="Rectangle_2" data-name="Rectangle 2" class="cls-9" transform="translate(401 312)">
      <rect class="cls-10" width="237" height="133"/>
      <rect class="cls-11" x="0.5" y="0.5" width="236" height="132"/>
    </g>
  </g>
</svg>
