<svg xmlns="http://www.w3.org/2000/svg" viewBox="0 0 110 110">
  <defs>
    <style>
      .cls-1 {
        stroke: #000;
      }

      .cls-2 {
        fill: #f51a08;
        stroke: #f51a08;
      }

      .cls-12, .cls-3 {
        fill: #95baf7;
      }

      .cls-4 {
        fill: #275333;
        stroke: #275333;
      }

      .cls-13, .cls-5 {
        fill: #f5b808;
      }

      .cls-6, .cls-7 {
        fill: #fff;
      }

      .cls-6 {
        stroke: #fff;
      }

      .cls-7, .cls-9 {
        stroke: #707070;
      }

      .cls-8 {
        fill: #707070;
        font-size: 10px;
        font-family: HelveticaNeue, Helvetica Neue;
      }

      .cls-11, .cls-9 {
        fill: none;
      }

      .cls-10, .cls-12, .cls-13 {
        stroke: none;
      }
    </style>
  </defs>
  <g id="Screen_Small" transform="translate(-295 -180)">
    <g id="Ellipse_17" data-name="Ellipse 17" class="cls-1" transform="translate(307.941 180)">
      <ellipse class="cls-10" cx="28.887" cy="31.25" rx="28.887" ry="31.25"/>
      <ellipse class="cls-11" cx="28.887" cy="31.25" rx="28.387" ry="30.75"/>
    </g>
    <g id="Ellipse_18" data-name="Ellipse 18" class="cls-2" transform="translate(320.651 227.5)">
      <ellipse class="cls-10" cx="28.887" cy="31.25" rx="28.887" ry="31.25"/>
      <ellipse class="cls-11" cx="28.887" cy="31.25" rx="28.387" ry="30.75"/>
    </g>
    <g id="Path_1" data-name="Path 1" class="cls-3" transform="translate(336.828 180)">
      <path class="cls-10" d="M 28.88655662536621 61.99999618530273 C 25.05919647216797 61.99999618530273 21.34617614746094 61.18900680541992 17.85064697265625 59.58955764770508 C 14.47131633758545 58.04326629638672 11.43560695648193 55.82880783081055 8.827836990356445 53.00768661499023 C 6.217496395111084 50.18376541137695 4.167806625366211 46.89469528198242 2.735716581344604 43.23183441162109 C 1.252206683158875 39.43744659423828 0.4999966323375702 35.40616607666016 0.4999966323375702 31.24999618530273 C 0.4999966323375702 27.09382629394531 1.252206683158875 23.06254577636719 2.735716581344604 19.26815605163574 C 4.167806625366211 15.60529613494873 6.217496395111084 12.3162260055542 8.827836990356445 9.492305755615234 C 11.43560695648193 6.671185970306396 14.47131633758545 4.45672607421875 17.85064697265625 2.910436153411865 C 21.34617614746094 1.310986161231995 25.05919647216797 0.4999961853027344 28.88655662536621 0.4999961853027344 C 32.71391677856445 0.4999961853027344 36.42693710327148 1.310986161231995 39.92246627807617 2.910436153411865 C 43.30179595947266 4.45672607421875 46.33750534057617 6.671185970306396 48.94527816772461 9.492305755615234 C 51.55561828613281 12.3162260055542 53.60530853271484 15.60529613494873 55.03739547729492 19.26815605163574 C 56.52090835571289 23.06254577636719 57.27311706542969 27.09382629394531 57.27311706542969 31.24999618530273 C 57.27311706542969 35.40616607666016 56.52090835571289 39.43744659423828 55.03739547729492 43.23183441162109 C 53.60530853271484 46.89469528198242 51.55561828613281 50.18376541137695 48.94527816772461 53.00768661499023 C 46.33750534057617 55.82880783081055 43.30179595947266 58.04326629638672 39.92246627807617 59.58955764770508 C 36.42693710327148 61.18900680541992 32.71391677856445 61.99999618530273 28.88655662536621 61.99999618530273 Z"/>
      <path class="cls-12" d="M 28.88655662536621 0.9999961853027344 C 25.13149642944336 0.9999961853027344 21.48847579956055 1.795734405517578 18.05868530273438 3.365104675292969 C 14.73980712890625 4.88372802734375 11.75763702392578 7.059394836425781 9.19500732421875 9.831707000732422 C 6.627197265625 12.60959625244141 4.61065673828125 15.84573745727539 3.201396942138672 19.45021438598633 C 1.740657806396484 23.18635559082031 0.9999961853027344 27.15637588500977 0.9999961853027344 31.24999618530273 C 0.9999961853027344 35.3436164855957 1.740657806396484 39.31363677978516 3.201396942138672 43.04977416992188 C 4.61065673828125 46.65425491333008 6.627197265625 49.89039611816406 9.19500732421875 52.66828536987305 C 11.75763702392578 55.44059753417969 14.73980712890625 57.61626434326172 18.05868530273438 59.1348876953125 C 21.48847579956055 60.70425796508789 25.13149642944336 61.49999618530273 28.88655662536621 61.49999618530273 C 32.64161682128906 61.49999618530273 36.28463745117188 60.70425796508789 39.71442413330078 59.1348876953125 C 43.03330612182617 57.61626434326172 46.01547622680664 55.44059753417969 48.57810592651367 52.66828536987305 C 51.14591598510742 49.89039611816406 53.16245651245117 46.65425491333008 54.57171630859375 43.04977416992188 C 56.03245544433594 39.31363677978516 56.77311706542969 35.3436164855957 56.77311706542969 31.24999618530273 C 56.77311706542969 27.15637588500977 56.03245544433594 23.18635559082031 54.57171630859375 19.45021438598633 C 53.16245651245117 15.84573745727539 51.14591598510742 12.60959625244141 48.57810592651367 9.831707000732422 C 46.01547622680664 7.059394836425781 43.03330612182617 4.88372802734375 39.71442413330078 3.365104675292969 C 36.28463745117188 1.795734405517578 32.64161682128906 0.9999961853027344 28.88655662536621 0.9999961853027344 M 28.88655662536621 -3.814697265625e-06 C 44.84015655517578 -3.814697265625e-06 57.77311706542969 13.99109649658203 57.77311706542969 31.24999618530273 C 57.77311706542969 48.50889587402344 44.84015655517578 62.49999618530273 28.88655662536621 62.49999618530273 C 12.93295669555664 62.49999618530273 -3.814697265625e-06 48.50889587402344 -3.814697265625e-06 31.24999618530273 C -3.814697265625e-06 13.99109649658203 12.93295669555664 -3.814697265625e-06 28.88655662536621 -3.814697265625e-06 Z"/>
    </g>
    <g id="Ellipse_20" data-name="Ellipse 20" class="cls-4" transform="translate(295 210)">
      <ellipse class="cls-10" cx="28.887" cy="31.25" rx="28.887" ry="31.25"/>
      <ellipse class="cls-11" cx="28.887" cy="31.25" rx="28.387" ry="30.75"/>
    </g>
    <g id="Path_2" data-name="Path 2" class="cls-5" transform="translate(347.227 210)">
      <path class="cls-10" d="M 28.88655662536621 61.99999618530273 C 25.05919647216797 61.99999618530273 21.34617614746094 61.18900680541992 17.85064697265625 59.58955764770508 C 14.47131633758545 58.04326629638672 11.43560695648193 55.82880783081055 8.827836990356445 53.00768661499023 C 6.217496395111084 50.18376541137695 4.167806625366211 46.89469528198242 2.735716581344604 43.23183441162109 C 1.252206683158875 39.43744659423828 0.4999966323375702 35.40616607666016 0.4999966323375702 31.24999618530273 C 0.4999966323375702 27.09382629394531 1.252206683158875 23.06254577636719 2.735716581344604 19.26815605163574 C 4.167806625366211 15.60529613494873 6.217496395111084 12.3162260055542 8.827836990356445 9.492305755615234 C 11.43560695648193 6.671185970306396 14.47131633758545 4.45672607421875 17.85064697265625 2.910436153411865 C 21.34617614746094 1.310986161231995 25.05919647216797 0.4999961853027344 28.88655662536621 0.4999961853027344 C 32.71391677856445 0.4999961853027344 36.42693710327148 1.310986161231995 39.92246627807617 2.910436153411865 C 43.30179595947266 4.45672607421875 46.33750534057617 6.671185970306396 48.94527816772461 9.492305755615234 C 51.55561828613281 12.3162260055542 53.60530853271484 15.60529613494873 55.03739547729492 19.26815605163574 C 56.52090835571289 23.06254577636719 57.27311706542969 27.09382629394531 57.27311706542969 31.24999618530273 C 57.27311706542969 35.40616607666016 56.52090835571289 39.43744659423828 55.03739547729492 43.23183441162109 C 53.60530853271484 46.89469528198242 51.55561828613281 50.18376541137695 48.94527816772461 53.00768661499023 C 46.33750534057617 55.82880783081055 43.30179595947266 58.04326629638672 39.92246627807617 59.58955764770508 C 36.42693710327148 61.18900680541992 32.71391677856445 61.99999618530273 28.88655662536621 61.99999618530273 Z"/>
      <path class="cls-13" d="M 28.88655662536621 0.9999961853027344 C 25.13149642944336 0.9999961853027344 21.48847579956055 1.795734405517578 18.05868530273438 3.365104675292969 C 14.73980712890625 4.88372802734375 11.75763702392578 7.059394836425781 9.19500732421875 9.831707000732422 C 6.627197265625 12.60959625244141 4.61065673828125 15.84573745727539 3.201396942138672 19.45021438598633 C 1.740657806396484 23.18635559082031 0.9999961853027344 27.15637588500977 0.9999961853027344 31.24999618530273 C 0.9999961853027344 35.3436164855957 1.740657806396484 39.31363677978516 3.201396942138672 43.04977416992188 C 4.61065673828125 46.65425491333008 6.627197265625 49.89039611816406 9.19500732421875 52.66828536987305 C 11.75763702392578 55.44059753417969 14.73980712890625 57.61626434326172 18.05868530273438 59.1348876953125 C 21.48847579956055 60.70425796508789 25.13149642944336 61.49999618530273 28.88655662536621 61.49999618530273 C 32.64161682128906 61.49999618530273 36.28463745117188 60.70425796508789 39.71442413330078 59.1348876953125 C 43.03330612182617 57.61626434326172 46.01547622680664 55.44059753417969 48.57810592651367 52.66828536987305 C 51.14591598510742 49.89039611816406 53.16245651245117 46.65425491333008 54.57171630859375 43.04977416992188 C 56.03245544433594 39.31363677978516 56.77311706542969 35.3436164855957 56.77311706542969 31.24999618530273 C 56.77311706542969 27.15637588500977 56.03245544433594 23.18635559082031 54.57171630859375 19.45021438598633 C 53.16245651245117 15.84573745727539 51.14591598510742 12.60959625244141 48.57810592651367 9.831707000732422 C 46.01547622680664 7.059394836425781 43.03330612182617 4.88372802734375 39.71442413330078 3.365104675292969 C 36.28463745117188 1.795734405517578 32.64161682128906 0.9999961853027344 28.88655662536621 0.9999961853027344 M 28.88655662536621 -3.814697265625e-06 C 44.84015655517578 -3.814697265625e-06 57.77311706542969 13.99109649658203 57.77311706542969 31.24999618530273 C 57.77311706542969 48.50889587402344 44.84015655517578 62.49999618530273 28.88655662536621 62.49999618530273 C 12.93295669555664 62.49999618530273 -3.814697265625e-06 48.50889587402344 -3.814697265625e-06 31.24999618530273 C -3.814697265625e-06 13.99109649658203 12.93295669555664 -3.814697265625e-06 28.88655662536621 -3.814697265625e-06 Z"/>
    </g>
    <g id="Ellipse_22" data-name="Ellipse 22" class="cls-6" transform="translate(310.553 190.048)">
      <ellipse class="cls-10" cx="38.882" cy="43.449" rx="38.882" ry="43.449"/>
      <ellipse class="cls-11" cx="38.882" cy="43.449" rx="38.382" ry="42.949"/>
    </g>
    <g id="Rectangle_1" data-name="Rectangle 1" class="cls-7" transform="translate(321.975 218.018)">
      <rect class="cls-10" width="54.921" height="31.229"/>
      <rect class="cls-11" x="0.5" y="0.5" width="53.921" height="30.229"/>
    </g>
    <text id="Screens" class="cls-8" transform="translate(330.237 224.536)"><tspan x="0" y="10">Screens</tspan></text>
    <g id="Rectangle_2" data-name="Rectangle 2" class="cls-9" transform="translate(320.76 215.846)">
      <rect class="cls-10" width="57.595" height="36.117"/>
      <rect class="cls-11" x="0.5" y="0.5" width="56.595" height="35.117"/>
    </g>
  </g>
</svg>
